<?xml version="1.0" encoding="UTF-8"?>
<svg xmlns="http://www.w3.org/2000/svg" viewBox="0 0 128 128">
  <rect width="128" height="128" rx="28.16" fill="#6B7280"/>
  <g transform="matrix(0.1175 0 0 -0.1175 7.588 120.412)"><path d="M240 80V250Q201 267 171.5 295.5Q142 324 121.5 360.0Q101 396 90.5 437.0Q80 478 80 520Q80 678 192.0 779.0Q304 880 480.0 880.0Q656 880 768.0 779.0Q880 678 880 520Q880 478 869.5 437.0Q859 396 838.5 360.0Q818 324 788.5 295.5Q759 267 720 250V80Z" fill="#ffffff"/><path d="M420 360H540L480 480Z" fill="#6B7280"/><path d="M340 440Q373 440 396.5 463.5Q420 487 420 520Q420 553 396.5 576.5Q373 600 340 600Q307 600 283.5 576.5Q260 553 260 520Q260 487 283.5 463.5Q307 440 340 440Z" fill="#6B7280"/><path d="M620 440Q653 440 676.5 463.5Q700 487 700 520Q700 553 676.5 576.5Q653 600 620 600Q587 600 563.5 576.5Q540 553 540 520Q540 487 563.5 463.5Q587 440 620 440Z" fill="#6B7280"/></g>
  <!-- Teeth gaps: 2 vertical slits at the bottom of the skull -->
  <rect x="51.46" y="98.47" width="4.70" height="15.67" fill="#6B7280"/>
  <rect x="71.84" y="98.47" width="4.70" height="15.67" fill="#6B7280"/>
</svg>
