<?xml version="1.0" encoding="UTF-8"?>
<svg xmlns="http://www.w3.org/2000/svg" viewBox="0 0 128 128">
  <rect width="128" height="128" rx="28.16" fill="#006C49"/>
  <g transform="matrix(0.1175 0 0 -0.1175 7.588 120.412)">
    <path d="M80 480Q80 563 111.5 636.0Q143 709 197.0 763.0Q251 817 324.0 848.5Q397 880 480.0 880.0Q563 880 636.0 848.5Q709 817 763.0 763.0Q817 709 848.5 636.0Q880 563 880 480Q880 397 848.5 324.0Q817 251 763.0 197.0Q709 143 636.0 111.5Q563 80 480.0 80.0Q397 80 324.0 111.5Q251 143 197.0 197.0Q143 251 111.5 324.0Q80 397 80 480Z" fill="#ffffff"/>
  </g>
  <polyline points="42.06,67.13 54.60,79.67 85.94,48.33" fill="none" stroke="#006C49" stroke-width="10.97" stroke-linejoin="miter"/>
</svg>
