<?xml version="1.0" encoding="UTF-8"?>
<svg xmlns="http://www.w3.org/2000/svg" viewBox="0 0 128 128">
  <rect width="128" height="128" rx="28.16" fill="#9F403D"/>
  <g transform="matrix(0.1306 0 0 -0.1306 1.320 126.680)">
    <path d="M441 120V206Q388 218 349.5 252.0Q311 286 293 348L367 378Q382 330 411.5 305.0Q441 280 489 280Q530 280 558.5 298.5Q587 317 587 356Q587 391 565.0 411.5Q543 432 463 458Q377 485 345.0 522.5Q313 560 313 614Q313 679 355.0 715.0Q397 751 441 756V840H521V756Q571 748 603.5 719.5Q636 691 651 650L577 618Q565 650 543.0 666.0Q521 682 483 682Q439 682 416.0 662.5Q393 643 393 614Q393 581 423.0 562.0Q453 543 527 522Q596 502 631.5 458.5Q667 415 667 358Q667 287 625.0 250.0Q583 213 521 204V120Z" fill="#ffffff"/>
  </g>
</svg>
