<?xml version="1.0" encoding="UTF-8"?>
<svg xmlns="http://www.w3.org/2000/svg" viewBox="0 0 128 128">
  <rect width="128" height="128" rx="28.16" fill="#6E3BD8"/>
  <g transform="matrix(0.1175 0 0 -0.1175 7.588 120.412)">
    <path d="M478.0 240.0Q499 240 513.5 254.5Q528 269 528.0 290.0Q528 311 513.5 325.5Q499 340 478.0 340.0Q457 340 442.5 325.5Q428 311 428.0 290.0Q428 269 442.5 254.5Q457 240 478.0 240.0Z M442 394H516Q516 427 523.5 446.0Q531 465 566 498Q592 524 607.0 547.5Q622 571 622 604Q622 660 581.0 690.0Q540 720 484 720Q427 720 391.5 690.0Q356 660 342 618L408 592Q413 610 430.5 631.0Q448 652 484 652Q516 652 532.0 634.5Q548 617 548 596Q548 576 536.0 558.5Q524 541 506 526Q462 487 452.0 467.0Q442 447 442 394Z M480 80Q397 80 324.0 111.5Q251 143 197.0 197.0Q143 251 111.5 324.0Q80 397 80 480Q80 563 111.5 636.0Q143 709 197.0 763.0Q251 817 324.0 848.5Q397 880 480 880Q563 880 636.0 848.5Q709 817 763.0 763.0Q817 709 848.5 636.0Q880 563 880 480Q880 397 848.5 324.0Q817 251 763.0 197.0Q709 143 636.0 111.5Q563 80 480 80Z" fill="#ffffff"/>
  </g>
</svg>
