<svg xmlns="http://www.w3.org/2000/svg" viewBox="170 170 680 680">
  <path fill="#006C49" fill-rule="evenodd" d="M847.85,512.78c-1.35,104.47-14.44,208.94-72.24,264.08C720.47,834.66,616,847.75,511.53,849.1c-104.47-1.35-208.94-14.44-264.08-72.24-57.8-55.15-70.86-159.61-72.24-264.08,1.38-104.47,14.44-208.94,72.24-264.09,55.14-57.8,159.61-70.85,264.08-72.24,62,.82,124.09,5.76,175.78,21.75a14.34,14.34,0,0,1,9.87,17.24,91,91,0,0,0-3,25.65c1.17,50.62,44.62,91.17,95.2,89a89.85,89.85,0,0,0,19.42-2.94A14.4,14.4,0,0,1,826.11,337C842.1,388.71,847,450.75,847.85,512.78Z"/>
  <path fill="#fff" fill-rule="evenodd" d="M468.28,343.44c1.16,15.74-11.57,28.67-27.36,28.67H418.7a47,47,0,0,0-46.95,46.95v13.16a8.53,8.53,0,0,0,8.54,8.53h15.65a26.68,26.68,0,0,1,0,53.36H380.29a8.53,8.53,0,0,0-8.54,8.53h0v98.7c0,13.65-11.1,26.18-24.71,27.15a26.69,26.69,0,0,1-28.57-24.64c-.05-.66-.07-1.31-.07-2V419.06a100.3,100.3,0,0,1,100.29-100.3h23A26.66,26.66,0,0,1,468.28,343.44ZM620.38,468V606.5A100.42,100.42,0,0,1,521.1,706.8c-14.84.15-27.62-11.68-27.7-26.52a26.68,26.68,0,0,1,26.52-26.83H520c25.85,0,47-20.17,47-46v-6.26H540.35a100.3,100.3,0,0,1-100.3-100.3V468c0-15,12.24-27.56,27.2-27.27a26.67,26.67,0,0,1,26.15,26.67v33.43a47,47,0,0,0,47,46.95h18.14a8.53,8.53,0,0,0,8.54-8.53V467.43a26.67,26.67,0,0,1,26.15-26.67c15-.29,27.2,12.31,27.2,27.27Zm84.3-.6V601.88a26.68,26.68,0,1,1-53.35,0V467.43a26.68,26.68,0,0,1,53.35,0Zm0-72.07v1.85a26.68,26.68,0,1,1-53.35,0v-1.85a26.68,26.68,0,0,1,53.35,0Z"/>
  <path fill="#F59E0B" fill-rule="evenodd" d="M847.46,231.86a62.41,62.41,0,0,1-37.29,64.37l-.2.09a61.72,61.72,0,0,1-24.56,5.07A62.42,62.42,0,0,1,728,214.33l.09-.2a62.43,62.43,0,0,1,119.35,17.73Z"/>
</svg>
